<svg xmlns="http://www.w3.org/2000/svg" height="800" width="1200" viewBox="-45 -43.77875 390 262.6725"><path d="M220.15 65.48c24.35-10.713 40.251-26.801 41.118-44.648 0 0-6.429-4.953-27.186-12.59C215.855 1.535 201.95 0 201.95 0l.064 39.765c0 5.942-2.385 12.007-6.889 17.376-13.777-3.326-29.003-5.193-44.974-5.198h-.01c-15.98.005-31.224 1.877-45.017 5.209-4.503-5.37-6.894-11.44-6.894-17.387L98.29 0S84.394 1.535 66.156 8.242c-20.756 7.637-27.174 12.59-27.174 12.59.86 17.852 16.767 33.945 41.144 44.658-24.356 10.713-40.256 26.8-41.118 44.642 0 0 6.424 4.958 27.18 12.59 18.233 6.707 32.133 8.242 32.133 8.242l-.064-39.765c0-5.942 2.385-12.012 6.894-17.376 13.777 3.332 28.998 5.193 44.968 5.193h.006c15.986 0 31.234-1.867 45.022-5.21 4.503 5.37 6.888 11.451 6.888 17.393l-.053 39.765s13.9-1.535 32.132-8.242c20.757-7.632 27.18-12.59 27.18-12.59-.866-17.852-16.772-33.945-41.144-44.653m-70.02 8.948h-.016l-.455-.01c-14.419 0-26.174-3.53-34.796-8.927 8.622-5.407 20.383-8.942 34.829-8.942l.443-.006h.022l.454.006c14.425 0 26.175 3.53 34.796 8.926-8.621 5.402-20.382 8.942-34.822 8.942M7.108 175.02C.123 175.02 0 169.693 0 167.64v-9.692c0-.588-.048-1.369 1.198-1.369h3.61c1.172 0 1.097.835 1.097 1.37v9.69c0 .69.128 2.541 2.669 2.541h6.054c2.492 0 2.637-1.85 2.637-2.54v-9.692c0-.534-.07-1.369 1.096-1.369h3.637c1.32 0 1.203.835 1.203 1.37v9.69c0 2.054-.123 7.381-7.134 7.381m24.494-1.17c-2.466-3.321-5.985-7.503-9.573-11.921v11.798c0 .514.128 1.295-1.097 1.295h-3.37c-1.219 0-1.074-.781-1.074-1.295V157.95c0-.535-.054-1.37 1.075-1.37h6.567c1.856 0 4.498 3.739 6.231 6.205 1.337 1.882 3.808 4.711 5.466 6.835v-11.67c0-.535-.075-1.37 1.15-1.37h3.658c1.177 0 1.102.835 1.102 1.37v17.072h-6.739c-1.444 0-2.08.096-3.396-1.172m27.763-3.68c2.952 0 2.738-2.834 2.738-4.129 0-4.348-1.224-4.519-3.177-4.519h-9.279v8.648zm-15.414 4.856v-18.414h16.275c.995 0 7.659-.117 7.659 6.884 0 7.16.78 11.53-7.514 11.53h-8.772l-1.904-3.856v3.856m24.565-18.296H98.21c1.273 0 1.102.83 1.102 2.37 0 1.433.193 2.24-1.102 2.24H86.364c-.316 0-1.385-.17-1.385.952 0 1.124-.22 1.568.973 1.568h10.477s1.514 2.882 1.685 3.369c.246.439.22.856-.706.856H86.562l-1.685-3.273v4.834c0 1.124 1.005.904 1.294.904h12.307c1.224 0 1.123.85 1.123 2.241 0 1.498.101 2.321-1.123 2.321h-15.58c-1.294 0-3.83-.39-3.83-4.439v-10.162c0-1.048.562-3.78 4.151-3.78m33.201 4.739h-7.3c-1.214 0-1.172.417-1.172.786v3.295h7.52c3.642 0 3.642-.91 3.642-1.861 0-1.904-.144-2.22-2.69-2.22m-13.06-4.861h16.408c2.198 0 5.391-.022 5.391 5.91 0 3.882-.823 4.075-2.583 5.273 2.958.513 2.567 4.295 2.567 6.252 0 1-.364.979-.663.979h-4.808c-1.006 0-.76-1.589-.76-2.418 0-2.273-1.267-2.171-1.76-2.171h-7.08c-.68-1.177-2-3.813-2-3.813v7.642c0 .664-.664.76-.905.76h-4.829c.262 0-.497.048-.497-.615v-16.21c0-1.15.807-1.59 1.518-1.59m48.101 5.222l-3.027 5.52.267.267h5.643l.294-.267c-.198-.417-2.637-5.054-2.883-5.547l-.294.027m1.952-5.097c1.198 0 2.364.535 3.637 3 .861 1.755 6.82 12.521 8.06 14.773v.61h-6.204l-1.786-3.226h-7.542s-1.267-2.904-1.63-3.706c-.466.754-2.958 5.493-3.82 6.931h-6.22v-.39c1.268-2.39 9.938-17.992 9.938-17.992m33.535 4.737h-7.3c-1.22 0-1.172.417-1.172.786v3.295h7.52c3.642 0 3.642-.91 3.642-1.861 0-1.904-.144-2.22-2.69-2.22m-13.06-4.861h16.408c2.198 0 5.397-.022 5.397 5.91 0 3.882-.824 4.075-2.59 5.273 2.953.513 2.563 4.295 2.563 6.252 0 1-.364.979-.658.979h-4.808c-1.006 0-.76-1.589-.76-2.418 0-2.273-1.267-2.171-1.76-2.171h-7.08c-.685-1.177-2.006-3.813-2.006-3.813v7.642c0 .664-.652.76-.899.76h-4.834c.267 0-.487.048-.487-.615v-16.21c0-1.15.808-1.59 1.513-1.59m36.141 18.412c-1.225-2.294-4.62-8.621-6.915-12.766v11.472c0 .513.07 1.294-1.091 1.294h-3.327c-1.246 0-1.15-.78-1.15-1.294v-15.778c0-.534-.07-1.342 1.15-1.342h5.739c.855 0 2.07-.198 3.444 2.54 1.027 2.193 3.204 6.745 4.69 9.157 1.535-2.412 3.76-6.964 4.787-9.157 1.343-2.738 2.535-2.54 3.487-2.54h5.712c1.177 0 1.054.808 1.054 1.342v15.778c0 .513.166 1.294-1.054 1.294h-3.342c-1.22 0-1.124-.78-1.124-1.294v-11.472c-2.315 4.145-5.69 10.472-6.963 12.766m30.793-4.69c2.765 0 2.663-2.85 2.663-4.76 0-1.711.39-4.396-3.198-4.396h-6.086c-3.562 0-3.145 2.685-3.145 4.396 0 1.91-.171 4.76 2.589 4.76zm-10.937 4.739c-5.445 0-5.204-5.84-5.204-9.616 0-3.471-.39-8.89 6.423-8.943h12.093c6.835 0 6.39 5.493 6.39 8.943 0 3.775.274 9.616-5.251 9.616m14.356-.049c-6.99 0-7.108-5.327-7.108-7.38v-9.692c0-.588-.048-1.369 1.198-1.369h3.616c1.166 0 1.096.835 1.096 1.37v9.69c0 .69.123 2.541 2.663 2.541h6.055c2.492 0 2.636-1.85 2.636-2.54v-9.692c0-.534-.074-1.369 1.097-1.369h3.637c1.32 0 1.203.835 1.203 1.37v9.69c0 2.054-.123 7.381-7.135 7.381m24.072-13.55h-7.3c-1.22 0-1.172.417-1.172.786v3.295h7.52c3.642 0 3.642-.91 3.642-1.861 0-1.904-.144-2.22-2.69-2.22m-13.066-4.861h16.414c2.198 0 5.402-.022 5.402 5.91 0 3.882-.834 4.075-2.594 5.273 2.958.513 2.567 4.295 2.567 6.252 0 1-.364.979-.663.979h-4.808c-1 0-.76-1.589-.76-2.418 0-2.273-1.267-2.171-1.754-2.171h-7.086c-.68-1.177-2-3.813-2-3.813v7.642c0 .664-.664.76-.905.76h-4.829c.262 0-.492.048-.492-.615v-16.21c0-1.15.808-1.59 1.508-1.59"/></svg>