<svg xmlns="http://www.w3.org/2000/svg" height="800" width="1200" viewBox="-134.0541 -50.81325 1161.8022 304.8795"><path d="M535.77 124.533H429.4c1.46 8.94 5.63 16 12.18 21.36 6.74 5.27 15.31 7.88 25.59 7.95 12.33-.02 25.25-3.9 31.29-12.52h34.96c-5.96 15.93-21.71 29.05-31.39 33.52-9.64 4.58-21.2 6.78-34.5 6.78-20.59-.02-37.42-6.25-50.4-18.65-12.95-12.5-19.45-28.07-19.44-46.77 0-19.23 6.52-35.18 19.42-47.83 12.93-12.66 29.16-19.01 48.66-19.01 20.78 0 37.7 6.35 50.61 18.99 13.04 12.63 19.57 29.34 19.57 50.18zm-32.79-24.87c-2.19-6.86-6.42-12.51-12.96-16.75-6.41-4.38-14-6.56-22.52-6.53-9.23.02-17.36 2.4-24.3 7.28-4.44 3.02-8.55 8.36-12.19 16zm221.41 1.96c-.36 37.93-14.51 61.32-23.51 73.84-9.06 12.6-18.96 19.94-21.04 21.37-3.38 2.32-.5 7.14 2.77 6.32 24.7-6.18 51.7-8.25 51.7-8.25s22 .48 30.42-26.67c5.48-17.66 14.01-43.25 14.01-66.61s-8.54-48.95-14.01-66.61c-8.42-27.15-30.42-26.67-30.42-26.67s-27-2.07-51.7-8.25c-3.27-.82-6.15 4-2.77 6.32 2.08 1.43 11.98 8.76 21.04 21.37 9 12.53 23.15 35.91 23.51 73.84zm123.24 0c.36 37.93 14.51 61.32 23.51 73.84 9.06 12.6 18.96 19.94 21.04 21.37 3.38 2.32.5 7.14-2.77 6.32-24.7-6.18-51.7-8.25-51.7-8.25s-22 .48-30.42-26.67c-5.48-17.66-14.01-43.25-14.01-66.61s8.54-48.95 14.01-66.61c8.42-27.15 30.42-26.67 30.42-26.67s27-2.07 51.7-8.25c3.27-.82 6.15 4 2.77 6.32-2.08 1.43-11.98 8.76-21.04 21.37-9 12.53-23.14 35.91-23.51 73.84zm-647.46 80c-14.79 0-26.74-3.13-35.8-9.35-9.07-6.18-15.49-14.9-19.22-26.04-2.58-7.66-3.98-21.76-3.94-42.08v-51.79h33.41v60.44c-.08 11.93.77 20.28 2.57 24.94 1.8 4.67 4.59 8.26 8.54 10.85 3.87 2.51 8.78 3.9 14.44 3.92 5.66-.02 10.57-1.41 14.44-3.92 3.95-2.59 6.74-6.18 8.54-10.85 1.8-4.66 2.65-13.01 2.57-24.94v-60.44h33.41v51.79c.04 20.32-1.36 34.42-3.94 42.08-3.73 11.13-10.15 19.86-19.22 26.04-9.06 6.22-21.01 9.35-35.8 9.35zm363.31-129.24h-36.34l49.34 115.43-16.74 35.44h36.95l71.28-150.87h-36.95l-35.46 75.05zM33.42 72.433l-.02-64.23H0v171.5h33.41l.01-75.44h63.04v75.44h33.41V8.203H96.46v64.23zm319.5-64.23h33.41v171.5h-33.41zm-49.03 105.9v65.55h-33.41V52.343h28.98v13.03c8.7-17.09 29.69-19.49 42.11-11.96v29.1c-3.12-1.66-14.01-6.91-25.42.09-9.69 5.95-12.26 16.93-12.26 31.5z"/></svg>