<svg version="1.0" width="1200" height="800" xmlns="http://www.w3.org/2000/svg" viewBox="-303.97515 -220.0945 2634.4513 1320.567"><g stroke-miterlimit="16" clip-rule="evenodd" stroke-linejoin="bevel"><path d="M1018.353 700.617c.437-2.297 3.734-4.664 5.71-3.992l12.188 4.336c1.532.539 2.711 2.281 2.5 3.86-6.101 42.921-53.297 89.132-109.375 89.132-80.984 0-119.96-59.164-119.101-117.687.672-58.211 40.875-117.243 119.101-117.243 56.57 0 105.946 42.032 105.946 99.235 0 1.898-1.633 3.531-3.743 3.531h-176c-6.515 51.32 27.93 105.844 74.149 105.844 69.89 0 88.625-66.899 88.625-67.016m-89.281-113.906c-32.54-.781-68.407 16.094-69.399 52.07l126.406-.164c-3.687-32.219-24.156-51.094-57.007-51.906m551.546 89.117c0-71.101-36.882-88.648-77.085-88.648-39.274 0-72.704 38.414-72.704 88 0 49.554 33.43 88.25 72.704 88.25 40.085 0 77.085-20.938 77.085-87.602m-199.015 1.117c0-64.882 54.797-117.78 122.539-117.78 29.195 0 55.937 9.702 76.992 25.929v-18.36c0-2.21 1.875-3.953 4.156-3.601l48.352 6.406c5.71.727 9.539 4.133 8.312 9.055-1.046 3.226-3.804 6.015-7.062 7.172-5.453 2.789-8.172 8.843-9.469 14.672-1.187 5.89-1.07 11.07-1.07 11.07v159.328c0 135.914-173.07 128.805-216.64 67.805-.204 0-.602-.93 0-2.25l.655-.93c.43-1.023 1.11-2.047 2.04-3.414 1.976-2.945 4.156-6.664 6.656-10.352 2.508-3.765 2.836-4.601 4.672-7.148 1.039-1.414 1.422-1 1.968-1.672.282-.516.657-1.062.93-1.258 1.766-1.156 3.227.196 3.711 1.258 30.25 55.852 154.664 64.117 154.664-37.437v-14.07c-20.89 16.921-49.39 31.5-78.867 31.5-67.742 0-122.54-50.977-122.54-115.923m-746.14-3.179c-110.273-10.914-130.828 49.906-107.515 77.758 21.632 25.812 113.484 39 107.515-77.758M407.47 617.75c-2.117 7.586-.93 13.93-7.89 12.031-4.571-1.375-7.938-6.992-9.915-10.984-2.32-5.36-4.914-12-6.617-17.39-.875-3.032-1.531-5.516-1.71-7.4-.212-1.163-.212-2.21-.212-3.179.39-.836.672-2.578 2.297-3.648 81.656-52.688 193.32-27.57 193.32 44.664 0 55.172-.75 88.531.829 108.96 1.554 20.423 5.5 25.923 13.25 28.923 5.453 2.296 5.718 15.57-2.805 16.289H543.22c-.164 0-1.117-.25-1.79-1.344-.374-.328-.437-.695-.538-1.18l-.672-.89c-1.461-2.688-1.461-5.594-2.11-8.055-.827-2.39-1.992-4.969-2.577-7.188-45.883 45.485-163.743 40.414-163.743-38.023 0-49.211 42.875-68.227 82.844-75.188 20.242-3.484 40.39-4.296 55.688-4.156 7.43 0 13.68.188 18.156.188 2.015.18 8.008.18 9.14.18 0-91.938-117.609-75.227-130.148-32.61m-160.812-48.883c-2.993 2.297-6.063 1.813-8.633.117-3.782-2.554-5-11.656-6.899-17.617-29.851-61.07-172.047-48.281-166.336 13.946 1.625 16.812 20.243 31.39 39.04 38.304 9.406 3.477 20.593 6.196 31.85 8.727 11.884 2.343 24.438 4.547 37 6.96 49.188 9.759 101.626 20.009 101.626 78.368 0 116.36-194.29 115.289-272.906 63.344-1.094-.742-1.766-2.696-1.188-3.946l15.453-48.578c2.258-4.601 7.11-7.32 12.172-4.093 3.946 2.46 4.64 13.023 6.524 21.476 12.648 51.625 192.68 64.484 192.68-5.336 0-21.867-15.758-38.469-33.962-46.562-9.125-4.11-19.96-7.18-31.726-9.875-11.68-2.453-24.297-4.524-36.93-6.938-50.297-9.21-104.625-22.101-104.625-85.61 0-87.32 140.61-114.734 242.016-57.304 1.258.813 1.93 2.758 1.554 4.04l-12.351 41.984c-.969 3.601-2.313 6.789-4.36 8.593m54.711 172.586V536.047c-.21-1.93-.367-4.094-.53-6.547-.462-2.133-1.048-4.226-2.024-6.289-1.735-3.953-5.344-7.899-13.25-10.82-9.985-3.461-1.93-18.157 4.101-18.547 4.508-.117 9.336-1.555 14.578-3.297 5.297-1.883 10.774-4.086 15.415-5.82 4.828-1.703 9.68-3.258 13.21-3.258 4.641.21 8.079 3.086 8.079 8.96v251.602c.53 12.305 2.25 24.282 10.984 26.133 3.289.602 6.562 3.664 7.766 7.102 1.492 4.789-1.391 8.71-6.961 10.125l-.625.14h-59.907c-6.343 0-10.148-2.93-9.82-7.547.297-4.085 3.828-7.89 8.54-9.632 5.984-2.25 10.444-14.766 10.444-26.899m1532.11-.508c.57 12.805 2.39 25.063 11.226 26.946 3.485.812 6.891 3.71 8.149 7.242 1.633 4.89-1.461 9.023-7.008 10.422l-.656.21h-58.07c-6.36 0-10.399-3.023-10.047-7.78.117-3.922 3.75-8.024 8.742-9.938 7.367-2.719 10.804-15.242 11.101-27.781l1.14-126.016c-.265-2.07-.382-4.226-.75-6.687-.39-2.164-.921-4.454-1.921-6.641-1.906-3.969-5.5-8.078-13.976-11.07-7.516-2.672-5.852-16.18 3.156-16.368 4.57-.398 9.789-1.695 15.11-3.625 5.78-1.875 11.14-4.218 16.132-5.984 4.789-1.781 9.914-3.312 13.695-3.312 4.719.156 3.977 3.125 3.977 8.976l-.516 27.945c2.906-4.101 11.14-13.921 15.781-18.382 11.954-11.727 30.454-22.328 56.157-17.274 2.203.492 3.18 2.555 2.687 4.617l-11.351 38.61c-.508 1.86-2.735 3.023-4.618 2.226-53.414-22.492-58.234 46.453-58.14 49.211z"/><path d="M1058.923 745.563V635.625c0-20.266-4.11-30.75-7.726-35.953-1.743-2.719-3.672-4.086-4.829-4.906-.468-.157-.703-.367-.882-.508-3.899-.25-7.47-3.43-8.774-6.734-1.39-5.399 2.719-9.586 9.563-10.883l47.82-12.953c2.898-.672 5.063 1.343 4.406 4.093-1.086 6.563-.648 21.813-.304 28.453 35.187-57.492 161.976-50.742 161.976 57.36v91.969c0 .875-.14 2.78 0 5.187.211 2.234.211 4.906.86 7.484.835 5.5 3.14 9.125 6.57 10.141 5.406 1.586 8.851 5.508 9.633 9.492.562 4.367-2.274 8.844-7.938 8.844h-59.906c-5.719 0-9.406-3.969-8.867-8.844.664-4.336 4.406-8.14 9.953-9.492 2.234-.484 3.969-1.164 5.71-3.555 1.766-2.78 3.665-8.445 3.665-19.43 0 0 1.578-42.913 0-91.656-3.36-87.289-116.453-86.101-121.656 0v91.829c-.344 10.601 1.586 15.937 3.625 18.828 1.742 2.617 3.921 3.5 5.828 4.148 7.312 2.297 9.609 6.008 9.406 10.328-.172 4.992-3.258 8.258-10.773 7.844h-56.29c-13.562.352-17.695-12.531-2.468-18.172 4.14-1.531 11.398-12.515 11.398-22.976M802.22 571.555c.563 3.437-1.023 7.25-2.062 8.633l-134.57 185.586c21.062.328 49.984.93 72.288-1.829 24.532-3.437 45.242-16.32 55.086-35.008 3.711-7.171 9.164-9.984 13.531-7.539 4.149 2.274 5.688 7.961 4.149 13.836-5.703 19.586-15.703 47.93-15.703 47.93-.5 1.375-1.977 2.367-3.516 2.367H611.087c-.601 0-1.578 0-2.484-.14-1.07 0-2.836-.235-4.156-1.414-3.805-2.578-3.172-6.97-1.149-11.328l137.336-187.047c-19.101-.508-45.562-1.461-65.203.882-21.516 2.555-38.39 14.297-47.164 32.235-2.602 5.203-7.984 7.226-12.445 6.617-4.735-.617-9.188-4.43-7.938-10.484 3.86-19.43 15.563-48.407 15.563-48.407.296-1.109 2.101-2.43 3.546-2.43H792.01c6.242-.327 9.797 3.048 10.211 7.54m1104.538-59.461H372.658v-20.985h1534.101zm-1.633 350.32h-367.093v-21.078h367.093zm-633.758 0H12.954v-21.078h1258.414zm481.118-161.797c.601-2.297 3.804-4.664 6.109-3.992l12.11 4.336c1.28.539 2.39 2.281 2.21 3.86-6.148 42.921-53.047 89.132-109.312 89.132-81.055 0-119.75-59.164-119.125-117.687.742-58.211 41.187-117.243 119.125-117.243 56.64 0 105.898 42.032 105.898 99.235 0 1.898-1.695 3.531-3.648 3.531H1590c-6.523 51.32 27.828 105.844 73.836 105.844 69.985 0 88.649-66.899 88.649-67.016m-89.063-113.906c-32.64-.781-68.648 16.094-69.453 52.07l126.578-.164c-3.976-32.219-24.398-51.094-57.125-51.906m48.556-512.125c-149.461 15.313-214.43-9.242-373.39-20.547-158.68-11.445-301.852-1.46-442.055-2.039-288.649-1.68-442.774-39.11-442.774-39.11L450.556 0l-19.688 7.594s-67.734 26.71-85.093 41.46c-17.461 14.759-38.094 51.321-45.61 68.75-7.617 17.548-11.547 39.555-11.547 39.555l26.649 25.399s-4.149-12.234 22.125-27.602c18.5-10.914 30.476-1.257 33.64 9.211 3.227 10.469 4.5 18.547-9.664 25.532-14.039 6.921-35.695 6.406-35.695 6.406s16.297 24.242 54.914 20.804c8.266-.656 57.82-22.539 72.75-31.5 7.961-4.968 37.399 59.977 37.61 82.61.203 34.867-41.016 98.82-171.29 122.914-130.078 23.953-140.78 21.21-179.78 36.898-39.016 15.508-55.079 27.907-55.915 36.914-.187 1.227 142.36 12.954 142.36 12.954 30.875-7.266 109.382-20.735 172.117-38.493 88.094-24.718 317.32-121.765 440.226-159.343 116.36-35.68 201.297-46.688 299.438-40.485 127.578 8.219 136.531 44.68 219.453 75.946 92.664 35.015 155.445 28.164 238.203 64.695 65.453 28.828 113.344 49.555 171.79 72.055 59.35 22.906 104.077 28.992 104.734 11.046.648-19.101-18.75-6.617-58.633-37.445-36.07-27.781-179.844-120.719-229.899-144.336-49-23.117-45.601-14.078-79.937-42.492-45.172-37.984-159.79-113.79-158.008-142.805.672-9.281 186.023 15.414 287.297 16.11 138.133 1.07 224.695-57.43 242.055-68.36 10.054-6.133 6.062-19.781-2.875-14.343-9.86 5.703-73.813 36.093-160.305 44.937m237.578 779v-37.227h-13.602v-8.796h38.766v8.796h-13.602v37.227zm76.945 0h-11.484v-30.5l-8.375 19.688h-7.922l-8.383-19.688v30.5h-10.883v-46.023h13.352l10.21 22.726 10.165-22.727h13.32z"/></g></svg>