<?xml version="1.0" encoding="UTF-8"?>
<svg id="Layer_1" data-name="Layer 1" xmlns="http://www.w3.org/2000/svg" viewBox="0 0 1100 214.23">
  <defs>
    <style>
      .cls-1 {
        fill: #fff;
      }

      .cls-2 {
        fill: #f04e35;
      }

      .cls-3 {
        fill: #055229;
      }

      .cls-4 {
        fill: #ef4436;
      }

      .cls-5 {
        fill: #13b57a;
      }
    </style>
  </defs>
  <g>
    <g>
      <path class="cls-1" d="m7.51,87.01v-31.44c-1.47-.05-4.05-.27-4.92-.42v-7.76c3.49-.22,6.61-1.87,8.43-3.87h8.43v43.5H7.51Z"/>
      <path class="cls-1" d="m39.32,65.76c2.13-3.38,5.31-8.46,8.34-13.14h13.34c-3.19,4.19-7.12,8.98-10.5,13.31,3.58,6.42,7.6,14.13,11.28,21.08h-13.61c-1.66-3.6-4.22-9.67-5.8-13.02l-3.05,3.45v9.58h-11.98v-47.34h11.98v26.09Z"/>
      <path class="cls-1" d="m84.5,53.9v12.15h11.8v8.45h-11.8v12.24h-8.59v-12.24h-11.96v-8.45h11.96v-12.15h8.59Z"/>
    </g>
    <g>
      <path class="cls-1" d="m19.19,123.76c-.46,2.14-2.08,3.7-4.95,3.7-3.64,0-5.36-2.58-5.36-5.84s1.78-5.97,5.48-5.97c3.06,0,4.54,1.79,4.82,3.71h-2.48c-.24-.89-.86-1.77-2.42-1.77-2.05,0-2.84,1.84-2.84,3.93,0,1.94.69,3.99,2.9,3.99,1.62,0,2.13-1.09,2.35-1.76h2.5Z"/>
      <path class="cls-1" d="m28.3,124.8c0,.83,0,1.73.02,2.51h-2.34c-.03-.23-.05-.69-.06-.99-.51.87-1.27,1.19-2.37,1.19-1.76,0-2.88-1.07-2.88-3.21v-5.62h2.39v5.14c0,.95.3,1.74,1.33,1.74,1.09,0,1.54-.58,1.54-2.29v-4.59h2.39v6.12Z"/>
      <path class="cls-1" d="m32.07,124.71c.18.69.74,1.07,1.63,1.07s1.2-.32,1.2-.84c0-.55-.37-.77-1.61-1.07-2.81-.69-3.27-1.56-3.27-2.78s.9-2.61,3.5-2.61,3.5,1.43,3.57,2.6h-2.27c-.08-.32-.29-.92-1.41-.92-.79,0-1.04.35-1.04.74,0,.43.27.64,1.67.96,2.88.67,3.28,1.66,3.28,2.92,0,1.43-1.09,2.73-3.71,2.73s-3.7-1.26-3.89-2.79h2.35Z"/>
      <path class="cls-1" d="m37.96,118.68h1.33v-2.33h2.39v2.33h1.69v1.79h-1.69v4.26c0,.65.2.91.91.91.13,0,.36,0,.54-.03v1.64c-.47.16-1.12.16-1.6.16-1.68,0-2.24-.9-2.24-2.41v-4.54h-1.33v-1.79Z"/>
      <path class="cls-1" d="m52.7,122.97c0,2.61-1.56,4.53-4.29,4.53s-4.23-1.91-4.23-4.48,1.61-4.54,4.35-4.54c2.54,0,4.18,1.79,4.18,4.49Zm-6.1.02c0,1.66.71,2.64,1.86,2.64s1.82-.98,1.82-2.63c0-1.8-.66-2.66-1.85-2.66-1.11,0-1.83.82-1.83,2.64Z"/>
      <path class="cls-1" d="m54.34,120.9c0-.75,0-1.48-.02-2.22h2.28c.03.21.08.69.09,1.03.44-.64,1.13-1.23,2.4-1.23s1.92.64,2.23,1.31c.5-.7,1.25-1.31,2.66-1.31,1.5,0,2.73.92,2.73,3.17v5.66h-2.33v-5.37c0-.78-.28-1.54-1.26-1.54s-1.41.65-1.41,1.98v4.93h-2.34v-5.28c0-.89-.22-1.62-1.24-1.62s-1.43.6-1.43,2.08v4.82h-2.36v-6.4Z"/>
      <path class="cls-1" d="m70.74,123.5c0,1.08.54,2.13,1.73,2.13.99,0,1.28-.4,1.5-.92h2.39c-.31,1.06-1.25,2.79-3.96,2.79s-4.07-2.12-4.07-4.39c0-2.7,1.39-4.64,4.16-4.64,2.96,0,3.97,2.14,3.97,4.29,0,.29,0,.48-.03.73h-5.69Zm3.33-1.47c-.02-1-.42-1.85-1.58-1.85s-1.6.79-1.7,1.85h3.28Z"/>
      <path class="cls-1" d="m78.13,121.02c0-.86,0-1.62-.02-2.34h2.34c.03.19.06,1.05.06,1.51.38-.99,1.3-1.71,2.77-1.71v2.28c-1.73-.04-2.77.42-2.77,2.78v3.76h-2.39v-6.28Z"/>
      <path class="cls-1" d="m86.45,124.71c.18.69.74,1.07,1.63,1.07s1.2-.32,1.2-.84c0-.55-.37-.77-1.61-1.07-2.81-.69-3.27-1.56-3.27-2.78s.9-2.61,3.5-2.61,3.5,1.43,3.57,2.6h-2.27c-.08-.32-.29-.92-1.41-.92-.79,0-1.04.35-1.04.74,0,.43.27.64,1.67.96,2.88.67,3.28,1.66,3.28,2.92,0,1.43-1.09,2.73-3.71,2.73s-3.7-1.26-3.89-2.79h2.35Z"/>
    </g>
    <g>
      <path class="cls-1" d="m1.48,156.11c.26-2.28,1.86-5.09,6.48-5.09,4.28,0,6.18,2.42,6.18,5.03,0,2.23-1.28,3.29-2.29,3.75v.08c1.2.44,3.01,1.59,3.01,4.46,0,2.67-1.62,5.84-6.93,5.84-4.95,0-6.64-2.99-6.82-5.43h3.91c.25,1.26,1.12,2.36,3.03,2.36s2.78-1.2,2.78-2.82c0-1.71-.87-2.74-3.03-2.74h-1.66v-3.1h1.46c1.84,0,2.59-.61,2.59-2.16,0-1.27-.76-2.12-2.35-2.12-1.87,0-2.32,1.04-2.53,1.96H1.48Z"/>
      <path class="cls-1" d="m17.44,156.11c.26-2.28,1.86-5.09,6.48-5.09,4.28,0,6.18,2.42,6.18,5.03,0,2.23-1.28,3.29-2.29,3.75v.08c1.2.44,3.01,1.59,3.01,4.46,0,2.67-1.62,5.84-6.93,5.84-4.95,0-6.64-2.99-6.82-5.43h3.91c.25,1.26,1.12,2.36,3.03,2.36s2.78-1.2,2.78-2.82c0-1.71-.87-2.74-3.03-2.74h-1.66v-3.1h1.46c1.84,0,2.59-.61,2.59-2.16,0-1.27-.76-2.12-2.35-2.12-1.87,0-2.32,1.04-2.53,1.96h-3.83Z"/>
      <path class="cls-1" d="m51.93,162.55c-.22,1.08-.98,2.24-2.9,2.24s-3.04-1.39-3.04-3.33,1.16-3.43,3.13-3.43c2.18,0,2.78,1.56,2.82,2.29h-1.75c-.11-.53-.41-.89-1.11-.89-.82,0-1.28.72-1.28,1.97,0,1.37.49,2,1.27,2,.61,0,.94-.36,1.1-.85h1.76Z"/>
      <path class="cls-1" d="m59.11,161.4c0,1.95-1.17,3.39-3.22,3.39s-3.17-1.43-3.17-3.36,1.21-3.4,3.26-3.4c1.9,0,3.13,1.34,3.13,3.37Zm-4.57.01c0,1.24.54,1.98,1.4,1.98s1.36-.74,1.36-1.97c0-1.35-.5-1.99-1.39-1.99-.83,0-1.37.61-1.37,1.98Z"/>
      <path class="cls-1" d="m65.99,162.76c0,.62,0,1.3.01,1.88h-1.75c-.02-.17-.04-.52-.05-.75-.38.65-.95.9-1.78.9-1.32,0-2.16-.8-2.16-2.4v-4.21h1.79v3.85c0,.71.22,1.3,1,1.3.82,0,1.15-.43,1.15-1.71v-3.44h1.79v4.58Z"/>
      <path class="cls-1" d="m67.58,159.8c0-.55,0-1.15-.01-1.63h1.73c.04.17.06.62.07.82.22-.41.74-.97,1.87-.97,1.3,0,2.14.88,2.14,2.5v4.11h-1.79v-3.91c0-.73-.24-1.25-1.03-1.25s-1.2.42-1.2,1.56v3.6h-1.79v-4.83Z"/>
      <path class="cls-1" d="m74.18,158.18h1v-1.75h1.79v1.75h1.27v1.35h-1.27v3.19c0,.49.15.68.68.68.1,0,.27,0,.41-.02v1.23c-.36.12-.84.12-1.2.12-1.26,0-1.68-.67-1.68-1.8v-3.4h-1v-1.35Z"/>
      <path class="cls-1" d="m79.25,159.93c0-.64,0-1.21-.01-1.75h1.75c.02.14.05.79.05,1.13.29-.74.97-1.28,2.07-1.28v1.71c-1.3-.03-2.07.32-2.07,2.09v2.82h-1.79v-4.71Z"/>
      <path class="cls-1" d="m84.08,155.53h1.79v1.6h-1.79v-1.6Zm0,2.65h1.79v6.46h-1.79v-6.46Z"/>
      <path class="cls-1" d="m88.86,161.79c0,.81.41,1.6,1.3,1.6.74,0,.96-.3,1.13-.69h1.79c-.23.79-.93,2.09-2.96,2.09s-3.05-1.59-3.05-3.29c0-2.03,1.04-3.47,3.11-3.47,2.22,0,2.97,1.6,2.97,3.22,0,.22,0,.36-.02.54h-4.26Zm2.49-1.1c-.01-.75-.31-1.39-1.18-1.39s-1.2.59-1.27,1.39h2.46Z"/>
      <path class="cls-1" d="m95.66,162.7c.14.51.56.8,1.22.8s.9-.24.9-.63c0-.41-.28-.58-1.2-.8-2.1-.52-2.45-1.17-2.45-2.08s.67-1.96,2.62-1.96,2.62,1.07,2.68,1.94h-1.7c-.06-.24-.22-.69-1.06-.69-.59,0-.78.26-.78.55,0,.32.2.48,1.25.72,2.16.5,2.46,1.24,2.46,2.19,0,1.07-.81,2.04-2.78,2.04s-2.77-.95-2.91-2.09h1.76Z"/>
    </g>
  </g>
  <g>
    <g>
      <path class="cls-1" d="m1025.11,87.01v-9.34h-18.81v-8.9l14.67-25.35h15.11v25.38h4.5l-.94,8.86h-3.55v9.34h-10.97Zm0-24.75c.02-4.39.05-7.45.24-10.48-1.91,4.22-6.23,12.21-8.69,17.04h8.45v-6.55Z"/>
      <path class="cls-1" d="m1044.3,86.98v-11.95h10.78v11.95h-10.78Z"/>
      <path class="cls-1" d="m1071.74,76.26c.41,2.05,1.51,3.55,4.15,3.55,4.05,0,4.73-5.73,4.94-10.77-1.68,2.04-4.9,2.72-7.73,2.72-7.86,0-13.75-5.19-13.75-13.55,0-9.43,6.53-15.47,16.31-15.47,12.54,0,17.07,8.75,17.07,20.9,0,14.08-4.29,24.1-17.34,24.1-11.14,0-14.6-6.03-15.23-11.48h11.58Zm-.38-19.18c0,4.48,1.87,6.51,4.68,6.51,2.65,0,4.58-1.35,4.58-5.83s-1.24-7.09-4.68-7.09c-2.91,0-4.57,2.15-4.57,6.42Z"/>
    </g>
    <polygon class="cls-4" points="1007.68 117.53 1009.58 123.38 1015.73 123.38 1010.76 127 1012.66 132.85 1007.68 129.24 1002.7 132.85 1004.6 127 999.63 123.38 1005.78 123.38 1007.68 117.53"/>
    <polygon class="cls-4" points="1028.75 117.53 1030.65 123.38 1036.8 123.38 1031.82 127 1033.72 132.85 1028.75 129.24 1023.77 132.85 1025.67 127 1020.69 123.38 1026.85 123.38 1028.75 117.53"/>
    <polygon class="cls-4" points="1049.81 117.53 1051.71 123.38 1057.87 123.38 1052.89 127 1054.79 132.85 1049.81 129.24 1044.84 132.85 1046.74 127 1041.76 123.38 1047.91 123.38 1049.81 117.53"/>
    <polygon class="cls-4" points="1070.88 117.53 1072.78 123.38 1078.93 123.38 1073.96 127 1075.86 132.85 1070.88 129.24 1065.9 132.85 1067.8 127 1062.83 123.38 1068.98 123.38 1070.88 117.53"/>
    <polygon class="cls-4" points="1091.95 117.53 1093.85 123.38 1100 123.38 1095.02 127 1096.92 132.85 1091.95 129.24 1086.97 132.85 1088.87 127 1083.89 123.38 1090.05 123.38 1091.95 117.53"/>
    <g>
      <path class="cls-1" d="m1035.13,151.04h2.81v17.38h-2.81v-17.38Z"/>
      <path class="cls-1" d="m1047.73,162.91c0,2.69-2.2,2.94-2.94,2.94-1.71,0-1.96-1.59-1.96-2.45v-6.73h-2.81v6.61c0,1.59.49,3.06,1.47,3.92.86.86,1.96,1.22,3.3,1.22.98,0,2.2-.24,2.94-.98v.98h2.81v-11.75h-2.81s0,6.24,0,6.24Z"/>
      <path class="cls-1" d="m1056.05,152.38h-2.81v4.28h-2.08v2.69h2.08v9.06h2.81v-9.06h2.08v-2.69h-2.08v-4.28Z"/>
      <path class="cls-1" d="m1066.95,164.87c-.61.49-1.47.86-2.33.86-1.96,0-3.3-1.47-3.3-3.43s1.35-3.3,3.3-3.3c.86,0,1.71.24,2.33.86l.37.37,1.96-1.84-.49-.37c-1.1-.98-2.57-1.59-4.16-1.59-3.43,0-6,2.57-6,6s2.57,6,6,6c1.59,0,3.06-.61,4.16-1.59l.49-.37-1.96-1.96-.37.37Z"/>
      <path class="cls-1" d="m1079.18,157.65c-.86-.86-1.71-1.22-3.06-1.22-.98,0-1.96.24-2.69.98v-6.36h-2.81v17.38h2.81v-6.49c0-2.69,1.84-2.94,2.57-2.94,1.71,0,1.59,1.59,1.59,2.45v6.85h2.81v-6.73c0-1.59-.37-3.06-1.22-3.92Z"/>
      <circle class="cls-4" cx="1064.5" cy="162.42" r="1.96"/>
      <path class="cls-1" d="m1031.21,164.13c-.98.98-2.45,1.59-4.04,1.59-3.06,0-5.26-2.45-5.26-5.75s2.2-5.75,5.38-5.75c1.47,0,2.94.61,4.04,1.71l.37.37,1.84-1.84-.37-.37c-1.59-1.59-3.67-2.45-5.87-2.45-4.65-.12-8.08,3.55-8.08,8.32s3.43,8.44,7.95,8.44c2.2,0,4.41-.86,5.87-2.45l.37-.37-1.84-1.84-.37.37Z"/>
    </g>
  </g>
  <g>
    <polygon class="cls-2" points="513.31 117.53 515.21 123.38 521.36 123.38 516.38 127 518.28 132.85 513.31 129.24 508.33 132.85 510.23 127 505.25 123.38 511.4 123.38 513.31 117.53"/>
    <polygon class="cls-2" points="576.51 117.53 578.41 123.38 584.56 123.38 579.58 127 581.48 132.85 576.51 129.24 571.53 132.85 573.43 127 568.45 123.38 574.6 123.38 576.51 117.53"/>
    <polygon class="cls-2" points="597.57 117.53 599.47 123.38 605.63 123.38 600.65 127 602.55 132.85 597.57 129.24 592.59 132.85 594.5 127 589.52 123.38 595.67 123.38 597.57 117.53"/>
    <g>
      <g>
        <path class="cls-1" d="m530.73,87.01v-9.34h-18.81v-8.9l14.67-25.35h15.11v25.38h4.5l-.94,8.86h-3.55v9.34h-10.97Zm0-24.75c.02-4.39.05-7.45.24-10.48-1.91,4.22-6.23,12.21-8.69,17.04h8.45v-6.55Z"/>
        <path class="cls-1" d="m549.93,86.98v-11.95h10.78v11.95h-10.78Z"/>
        <path class="cls-1" d="m577.36,76.26c.41,2.05,1.51,3.55,4.15,3.55,4.05,0,4.73-5.73,4.94-10.77-1.68,2.04-4.9,2.72-7.73,2.72-7.85,0-13.74-5.19-13.74-13.55,0-9.43,6.53-15.47,16.31-15.47,12.54,0,17.07,8.75,17.07,20.9,0,14.08-4.29,24.1-17.34,24.1-11.14,0-14.6-6.03-15.23-11.48h11.58Zm-.38-19.18c0,4.48,1.87,6.51,4.68,6.51,2.65,0,4.58-1.35,4.58-5.83s-1.24-7.09-4.68-7.09c-2.91,0-4.57,2.15-4.57,6.42Z"/>
      </g>
      <polygon class="cls-2" points="534.37 117.53 536.27 123.38 542.43 123.38 537.45 127 539.35 132.85 534.37 129.24 529.39 132.85 531.3 127 526.32 123.38 532.47 123.38 534.37 117.53"/>
      <polygon class="cls-2" points="555.44 117.53 557.34 123.38 563.49 123.38 558.51 127 560.42 132.85 555.44 129.24 550.46 132.85 552.36 127 547.39 123.38 553.54 123.38 555.44 117.53"/>
      <g id="Layer_2" data-name="Layer 2">
        <g id="Layer_1-2" data-name="Layer 1-2">
          <path class="cls-2" d="m561.88,169.11c1.19,2.06,2.37,4.1,3.54,6.14-5.2,3.98-13.3,4.47-19.3-.12-6.9-5.28-8.03-14.3-4.34-20.79,4.25-7.47,12.2-9.12,17.31-7.91-.14.3-3.2,6.66-3.2,6.66,0,0-.24.02-.38.02-1.51.06-2.64.42-3.85,1.04-2.69,1.4-4.51,4.05-4.86,7.06-.18,1.51.03,3.03.6,4.43.49,1.19,1.17,2.24,2.1,3.13,1.42,1.37,3.1,2.21,5.05,2.49,1.85.27,3.63,0,5.29-.83.62-.31,1.16-.66,1.78-1.13.08-.05.15-.12.24-.19Z"/>
          <path class="cls-2" d="m561.89,151.01c-.3-.3-.58-.57-.86-.85-.17-.16-.33-.34-.5-.5-.06-.06-.13-.14-.13-.14,0,0,.06-.12.08-.17.33-.65.84-1.13,1.44-1.51.67-.42,1.45-.64,2.24-.62,1.01.02,1.96.27,2.75.95.59.5.89,1.14.94,1.9.09,1.28-.44,2.26-1.5,2.95-.62.4-1.29.72-1.96,1.08-.37.2-.68.38-1.05.75-.32.37-.33.72-.33.72h4.8s0,2.13,0,2.13h-7.4v-.21c-.03-1.05.09-2.04.57-2.99.44-.87,1.13-1.51,1.95-2.01.64-.38,1.31-.7,1.94-1.08.39-.23.67-.57.67-1.07,0-.43-.31-.8-.75-.92-1.04-.28-2.1.17-2.66,1.12-.08.14-.16.28-.27.46Z"/>
          <polygon class="cls-2" points="571.16 166.84 567.12 159.86 559.12 159.86 555.06 166.91 563.11 166.91 567.09 173.86 571.16 166.84"/>
        </g>
      </g>
    </g>
  </g>
  <g>
    <polygon class="cls-5" points="760.49 117.53 762.39 123.38 768.55 123.38 763.57 127 765.47 132.85 760.49 129.24 755.52 132.85 757.42 127 752.44 123.38 758.59 123.38 760.49 117.53"/>
    <polygon class="cls-5" points="781.56 117.53 783.46 123.38 789.61 123.38 784.64 127 786.54 132.85 781.56 129.24 776.58 132.85 778.48 127 773.51 123.38 779.66 123.38 781.56 117.53"/>
    <g>
      <g>
        <path class="cls-1" d="m777.72,87.01v-9.34h-18.81v-8.9l14.67-25.35h15.11v25.38h4.5l-.95,8.86h-3.55v9.34h-10.97Zm0-24.75c.02-4.39.05-7.45.24-10.48-1.91,4.22-6.23,12.21-8.69,17.04h8.45v-6.55Z"/>
        <path class="cls-1" d="m796.91,86.98v-11.95h10.78v11.95h-10.78Z"/>
        <path class="cls-1" d="m812.18,74.22c0-5.37,3.32-8.68,6.61-10.18-3.48-1.78-5.19-5.24-5.19-9.14,0-6.43,4.42-12.16,15.53-12.16,10.3,0,15.5,5.21,15.5,12.01,0,4.54-2.26,7.38-5.41,8.78,3.36,1.32,6.76,4.89,6.76,10.47,0,7.81-4.79,13.77-17.46,13.77-11.54,0-16.34-6.57-16.34-13.56Zm21.88-.19c0-3.86-1.63-6.08-5.01-6.08-3.59,0-4.92,2.43-4.92,6.13s1.84,5.96,5.07,5.96,4.86-2.18,4.86-6Zm-9.25-18.8c0,3.15,1.42,5.03,4.28,5.03s4.28-1.8,4.28-4.91-1.28-4.96-4.3-4.96c-2.72,0-4.26,1.58-4.26,4.84Z"/>
      </g>
      <polygon class="cls-5" points="802.63 117.53 804.53 123.38 810.68 123.38 805.7 127 807.6 132.85 802.63 129.24 797.65 132.85 799.55 127 794.57 123.38 800.72 123.38 802.63 117.53"/>
      <polygon class="cls-5" points="823.69 117.53 825.59 123.38 831.75 123.38 826.77 127 828.67 132.85 823.69 129.24 818.72 132.85 820.62 127 815.64 123.38 821.79 123.38 823.69 117.53"/>
      <polygon class="cls-5" points="844.76 117.53 846.66 123.38 852.81 123.38 847.84 127 849.74 132.85 844.76 129.24 839.78 132.85 841.68 127 836.71 123.38 842.86 123.38 844.76 117.53"/>
      <g>
        <path class="cls-1" d="m775.54,154.54h11.56v2.16h-4.54v12.12h-2.5v-12.12h-4.52v-2.16h.01Zm11.06,3.94h2.14v2h.04c.07-.28.2-.55.39-.82s.42-.51.7-.73c.27-.22.57-.39.91-.53.33-.13.68-.2,1.02-.2.26,0,.45.01.55.02s.2.03.31.04v2.2c-.16-.03-.32-.05-.49-.07-.17-.02-.33-.03-.49-.03-.38,0-.75.08-1.09.23s-.63.38-.89.68c-.25.3-.45.67-.6,1.11s-.22.95-.22,1.52v4.92h-2.28v-10.33h.01Zm16.53,10.34h-2.24v-1.44h-.04c-.28.52-.7.94-1.25,1.25-.55.31-1.12.47-1.69.47-1.36,0-2.35-.33-2.95-1.01s-.91-1.69-.91-3.05v-6.56h2.28v6.34c0,.91.17,1.55.52,1.92.34.37.84.56,1.46.56.48,0,.88-.07,1.2-.22s.58-.34.78-.59c.2-.24.34-.54.43-.89.09-.34.13-.72.13-1.12v-6h2.28v10.33Zm3.88-3.32c.07.67.32,1.13.76,1.4.44.26.97.4,1.58.4.21,0,.45-.02.73-.05s.53-.1.77-.19c.24-.09.43-.23.59-.41.15-.18.22-.41.21-.71-.01-.29-.12-.53-.32-.72-.2-.19-.45-.33-.77-.45-.31-.11-.67-.21-1.07-.29-.4-.08-.81-.17-1.22-.26-.42-.09-.84-.21-1.23-.34-.39-.13-.75-.31-1.06-.54-.31-.22-.56-.51-.75-.87-.19-.35-.28-.79-.28-1.31,0-.56.14-1.03.41-1.41.27-.38.62-.69,1.04-.92.42-.23.89-.39,1.4-.49.51-.09,1.01-.14,1.47-.14.53,0,1.05.06,1.53.17.48.11.93.29,1.32.55.39.25.72.58.98.99.26.4.42.9.49,1.47h-2.38c-.11-.54-.35-.92-.75-1.1-.39-.19-.85-.28-1.35-.28-.16,0-.35.01-.57.04-.22.03-.42.08-.62.15-.19.07-.35.18-.49.32-.13.14-.2.32-.2.55,0,.28.1.5.29.68s.44.31.76.43c.31.11.67.21,1.07.29.4.08.82.17,1.24.26.41.09.82.21,1.22.34.4.13.76.31,1.07.54.31.23.56.51.76.86s.29.78.29,1.28c0,.61-.14,1.13-.42,1.56-.28.42-.64.78-1.09,1.04-.44.26-.95.46-1.49.58-.54.12-1.09.18-1.62.18-.66,0-1.26-.07-1.81-.22s-1.04-.37-1.44-.67c-.4-.3-.73-.68-.96-1.12-.23-.44-.35-.98-.37-1.59h2.3v-.02Zm7.52-7.02h1.72v-3.1h2.28v3.1h2.06v1.7h-2.06v5.52c0,.24.01.44.03.62.02.17.07.32.14.44s.18.21.33.27c.15.06.34.09.6.09.16,0,.32,0,.48-.01s.32-.03.48-.07v1.76c-.25.03-.5.05-.74.08-.24.03-.48.04-.74.04-.6,0-1.09-.06-1.45-.17-.36-.11-.66-.28-.86-.5-.21-.22-.34-.49-.42-.83-.07-.33-.12-.72-.13-1.14v-6.1h-1.72v-1.72h-.02Zm7.67,0h2.16v1.4h.04c.32-.6.77-1.03,1.34-1.29s1.19-.39,1.86-.39c.82,0,1.52.14,2.13.43.6.28,1.11.68,1.51,1.18s.7,1.09.9,1.75c.2.67.3,1.38.3,2.14,0,.7-.09,1.37-.27,2.02-.18.66-.45,1.23-.82,1.73s-.83.9-1.39,1.2-1.22.45-1.99.45c-.33,0-.67-.03-1-.09-.33-.06-.66-.16-.96-.29-.3-.13-.59-.3-.85-.51-.26-.21-.47-.45-.66-.73h-.04v5.16h-2.28v-14.16Zm7.96,5.18c0-.46-.06-.92-.18-1.36s-.3-.83-.54-1.17c-.24-.34-.54-.61-.9-.82-.36-.2-.78-.31-1.24-.31-.96,0-1.68.33-2.17,1-.48.67-.73,1.55-.73,2.66,0,.52.06,1.01.19,1.45.13.44.31.83.57,1.15.25.32.55.57.91.76.35.19.77.28,1.23.28.52,0,.96-.11,1.32-.32.36-.21.66-.49.89-.83.23-.34.4-.73.5-1.16.09-.43.14-.88.14-1.33h0Zm4.02-9.12h2.28v2.16h-2.28s0-2.16,0-2.16Zm0,3.94h2.28v10.34h-2.28v-10.34h0Zm4.31-3.94h2.28v14.28h-2.28v-14.28h0Zm9.26,14.56c-.83,0-1.56-.14-2.21-.41-.64-.27-1.19-.66-1.64-1.13-.44-.48-.79-1.06-1.02-1.72s-.35-1.4-.35-2.2.12-1.51.35-2.18.57-1.24,1.02-1.72c.44-.48,1-.86,1.64-1.13.64-.27,1.38-.41,2.21-.41s1.56.14,2.21.41c.64.27,1.19.66,1.64,1.13.44.48.79,1.06,1.02,1.72.23.67.35,1.39.35,2.18s-.12,1.53-.35,2.2-.57,1.24-1.02,1.72-1,.86-1.64,1.13-1.38.41-2.21.41h0Zm0-1.8c.5,0,.95-.11,1.32-.32.37-.21.68-.49.92-.84.24-.34.41-.74.53-1.17.11-.43.17-.88.17-1.33s-.06-.88-.17-1.32-.29-.83-.53-1.17c-.24-.34-.54-.61-.92-.83-.37-.21-.82-.32-1.32-.32s-.95.11-1.32.32c-.37.21-.68.49-.92.83-.24.34-.41.73-.53,1.17-.11.44-.17.88-.17,1.32s.06.9.17,1.33c.11.43.29.83.53,1.17.24.34.54.62.92.84.37.22.82.32,1.32.32h0Zm5.89-8.82h1.72v-3.1h2.28v3.1h2.06v1.7h-2.06v5.52c0,.24.01.44.03.62.02.17.07.32.14.44.07.12.18.21.33.27.15.06.34.09.6.09.16,0,.32,0,.48-.01.16-.01.32-.03.48-.07v1.76c-.25.03-.5.05-.74.08-.24.03-.48.04-.74.04-.6,0-1.09-.06-1.45-.17-.36-.11-.66-.28-.86-.5-.21-.22-.34-.49-.42-.83-.07-.33-.12-.72-.13-1.14v-6.1h-1.72v-1.72h-.02Z"/>
        <path class="cls-5" d="m772.88,154.54h-10.44l-3.22-9.94-3.23,9.94h-10.44s8.45,6.14,8.45,6.14l-3.23,9.93,8.45-6.14,8.44,6.14-3.22-9.93,8.44-6.14Z"/>
        <path class="cls-3" d="m765.16,162.93l-.73-2.25-5.22,3.79,5.95-1.54Z"/>
      </g>
    </g>
  </g>
  <g>
    <g>
      <path class="cls-1" d="m239.03,129.69h-1.82c-.1-.35-.16-.75-.19-1.13-.64.86-1.76,1.32-3.35,1.32-3.33,0-5.2-2.52-5.2-5.79,0-3.45,2.01-6.05,5.63-6.05,2.96,0,4.69,1.67,4.97,3.63h-2.48c-.24-.77-.84-1.68-2.52-1.68-2.36,0-3.03,1.97-3.03,4s.77,3.92,3.05,3.92c2.12,0,2.51-1.47,2.51-2.5v-.1h-2.52v-2.04h4.95v6.43Z"/>
      <path class="cls-1" d="m241.17,129.69v-12.16h2.39v12.16h-2.39Z"/>
      <path class="cls-1" d="m253.72,125.36c0,2.61-1.56,4.53-4.29,4.53s-4.23-1.91-4.23-4.48,1.61-4.54,4.35-4.54c2.54,0,4.18,1.79,4.18,4.49Zm-6.1.02c0,1.66.71,2.64,1.86,2.64s1.82-.98,1.82-2.63c0-1.8-.66-2.66-1.85-2.66-1.11,0-1.83.82-1.83,2.64Z"/>
      <path class="cls-1" d="m255.35,117.53h2.39v4.45c.36-.55,1.07-1.12,2.47-1.12,2.35,0,3.52,1.94,3.52,4.36s-1.27,4.66-3.75,4.66c-1.28,0-1.85-.39-2.27-1.02,0,.28-.05.6-.09.82h-2.28c.02-.93.02-1.88.02-2.82v-9.34Zm5.95,7.74c0-1.44-.53-2.49-1.82-2.49-1.36,0-1.85.89-1.85,2.64,0,1.45.43,2.57,1.82,2.57,1.21,0,1.85-1.09,1.85-2.72Z"/>
      <path class="cls-1" d="m272.46,127.46c0,.82.07,2.02.12,2.23h-2.28c-.07-.17-.12-.62-.12-.84-.31.48-.9,1.04-2.42,1.04-2.08,0-2.96-1.37-2.96-2.7,0-1.96,1.58-2.87,4.11-2.87h1.23v-.53c0-.61-.22-1.22-1.33-1.22-1.01,0-1.23.43-1.34,1.05h-2.27c.13-1.53,1.08-2.77,3.7-2.76,2.31.01,3.57.92,3.57,2.97v3.62Zm-2.33-1.7h-.97c-1.44,0-1.97.44-1.97,1.27,0,.62.38,1.15,1.24,1.15,1.52,0,1.7-1.05,1.7-2.19v-.23Z"/>
      <path class="cls-1" d="m274.62,129.69v-12.16h2.39v12.16h-2.39Z"/>
      <path class="cls-1" d="m283.47,118.2h2.48v9.45h5.72l-.28,2.04h-7.92v-11.48Z"/>
      <path class="cls-1" d="m294.93,125.89c0,1.08.54,2.13,1.73,2.13.99,0,1.28-.4,1.5-.92h2.39c-.31,1.06-1.25,2.79-3.96,2.79s-4.07-2.12-4.07-4.39c0-2.7,1.39-4.64,4.16-4.64,2.96,0,3.97,2.14,3.97,4.29,0,.29,0,.48-.03.73h-5.69Zm3.33-1.47c-.02-1-.42-1.85-1.58-1.85s-1.6.79-1.7,1.85h3.28Z"/>
      <path class="cls-1" d="m309.42,127.46c0,.82.07,2.02.12,2.23h-2.28c-.07-.17-.12-.62-.12-.84-.31.48-.9,1.04-2.42,1.04-2.08,0-2.96-1.37-2.96-2.7,0-1.96,1.58-2.87,4.11-2.87h1.23v-.53c0-.61-.22-1.22-1.33-1.22-1.01,0-1.23.43-1.34,1.05h-2.27c.13-1.53,1.08-2.77,3.7-2.76,2.31.01,3.57.92,3.57,2.97v3.62Zm-2.33-1.7h-.97c-1.44,0-1.97.44-1.97,1.27,0,.62.38,1.15,1.24,1.15,1.52,0,1.7-1.05,1.7-2.19v-.23Z"/>
      <path class="cls-1" d="m319.44,117.53v9.79c0,.79,0,1.58.02,2.37h-2.3c-.05-.26-.09-.7-.11-.9-.42.68-1.16,1.1-2.45,1.1-2.18,0-3.57-1.75-3.57-4.44s1.47-4.58,3.92-4.58c1.24,0,1.91.44,2.1.82v-4.16h2.39Zm-5.95,7.86c0,1.68.65,2.59,1.82,2.59,1.64,0,1.83-1.37,1.83-2.61,0-1.47-.21-2.59-1.77-2.59-1.25,0-1.89.98-1.89,2.61Z"/>
      <path class="cls-1" d="m323.45,125.89c0,1.08.54,2.13,1.73,2.13.99,0,1.28-.4,1.5-.92h2.39c-.31,1.06-1.25,2.79-3.96,2.79s-4.07-2.12-4.07-4.39c0-2.7,1.39-4.64,4.16-4.64,2.96,0,3.97,2.14,3.97,4.29,0,.29,0,.48-.03.73h-5.69Zm3.33-1.47c-.02-1-.42-1.85-1.58-1.85s-1.6.79-1.7,1.85h3.28Z"/>
      <path class="cls-1" d="m330.84,123.4c0-.86,0-1.62-.02-2.34h2.34c.03.19.06,1.05.06,1.51.38-.99,1.3-1.71,2.77-1.71v2.28c-1.73-.04-2.77.42-2.77,2.78v3.76h-2.39v-6.28Z"/>
      <path class="cls-1" d="m341.06,129.69v-.15c0-1.91.86-3.46,3.23-5.19,1.55-1.13,2.02-1.52,2.02-2.48s-.46-1.48-1.38-1.48c-1.07,0-1.46.66-1.61,1.61h-2.3c.16-1.89,1.4-3.47,3.91-3.47,2.82,0,3.78,1.68,3.78,3.32s-.69,2.37-2.7,3.78c-1.35.95-1.89,1.57-2.08,2.07h5.19l-.3,1.99h-7.75Z"/>
      <path class="cls-1" d="m358.8,124.14c0,3.01-.96,5.75-4.21,5.75s-4.21-2.64-4.21-5.68,1.1-5.68,4.26-5.68,4.16,2.5,4.16,5.61Zm-5.96.04c0,2.01.23,3.81,1.78,3.81s1.71-1.68,1.71-3.83-.26-3.73-1.69-3.73-1.8,1.38-1.8,3.75Z"/>
      <path class="cls-1" d="m360.27,129.69v-.15c0-1.91.86-3.46,3.23-5.19,1.55-1.13,2.02-1.52,2.02-2.48s-.46-1.48-1.38-1.48c-1.07,0-1.46.66-1.61,1.61h-2.3c.16-1.89,1.4-3.47,3.91-3.47,2.82,0,3.78,1.68,3.78,3.32s-.69,2.37-2.7,3.78c-1.35.95-1.89,1.57-2.08,2.07h5.19l-.3,1.99h-7.75Z"/>
      <path class="cls-1" d="m374.17,129.69v-2.46h-4.96v-2.08l4.57-6.42h2.6v6.57h1.32l-.22,1.93h-1.1v2.46h-2.21Zm0-6.34c0-1.19,0-1.85.05-2.54-.43.92-1.86,3.01-2.89,4.49h2.85v-1.95Z"/>
    </g>
    <path class="cls-1" d="m298.41,87.01v-31.44c-1.47-.05-4.05-.27-4.92-.42v-7.76c3.49-.22,6.61-1.87,8.43-3.87h8.43v43.5h-11.94Z"/>
    <g>
      <path class="cls-1" d="m288.64,151.04h2.81v17.38h-2.81v-17.38Z"/>
      <path class="cls-1" d="m301.24,162.91c0,2.69-2.2,2.94-2.94,2.94-1.71,0-1.96-1.59-1.96-2.45v-6.73h-2.81v6.61c0,1.59.49,3.06,1.47,3.92.86.86,1.96,1.22,3.3,1.22.98,0,2.2-.24,2.94-.98v.98h2.81v-11.75h-2.81s0,6.24,0,6.24Z"/>
      <path class="cls-1" d="m309.56,152.38h-2.81v4.28h-2.08v2.69h2.08v9.06h2.81v-9.06h2.08v-2.69h-2.08v-4.28Z"/>
      <path class="cls-1" d="m320.45,164.87c-.61.49-1.47.86-2.33.86-1.96,0-3.3-1.47-3.3-3.43s1.35-3.3,3.3-3.3c.86,0,1.71.24,2.33.86l.37.37,1.96-1.84-.49-.37c-1.1-.98-2.57-1.59-4.16-1.59-3.43,0-6,2.57-6,6s2.57,6,6,6c1.59,0,3.06-.61,4.16-1.59l.49-.37-1.96-1.96-.37.37Z"/>
      <path class="cls-1" d="m332.69,157.65c-.86-.86-1.71-1.22-3.06-1.22-.98,0-1.96.24-2.69.98v-6.36h-2.81v17.38h2.81v-6.49c0-2.69,1.84-2.94,2.57-2.94,1.71,0,1.59,1.59,1.59,2.45v6.85h2.81v-6.73c0-1.59-.37-3.06-1.22-3.92Z"/>
      <circle class="cls-4" cx="318.01" cy="162.42" r="1.96"/>
      <path class="cls-1" d="m284.72,164.13c-.98.98-2.45,1.59-4.04,1.59-3.06,0-5.26-2.45-5.26-5.75s2.2-5.75,5.38-5.75c1.47,0,2.94.61,4.04,1.71l.37.37,1.84-1.84-.37-.37c-1.59-1.59-3.67-2.45-5.87-2.45-4.65-.12-8.08,3.55-8.08,8.32s3.43,8.44,7.95,8.44c2.2,0,4.41-.86,5.87-2.45l.37-.37-1.84-1.84-.37.37Z"/>
    </g>
    <g>
      <path class="cls-1" d="m344.74,75.56c.3-.11.56-.22.81-.33.56.21,2.95.25,4.77-3.51-.11.04-3.36.3-4.78,3.21-.22.1-.44.19-.65.27.51-1.3.94-2.62,1.29-3.97.27-.14.52-.28.76-.42.6.15,3.28-.31,4.41-4.15-1.71.38-3.69,1.66-4.46,3.84-.18.11-.4.22-.61.34.34-1.38.61-2.78.78-4.18.25-.17.48-.34.69-.5.65.06,3.15-.51,3.92-4.74-.14.1-3.39,1.13-4.03,4.45-.16.12-.35.25-.53.38.16-1.44.22-2.89.19-4.34.2-.18.4-.37.58-.54.67,0,3.18-.86,3.34-5.31-.04.04-3.44,1.73-3.5,5.03-.13.13-.28.27-.43.41-.05-1.48-.19-2.96-.43-4.42.19-.22.35-.41.47-.58,2.12-.38,2.91-3.31,2.62-5.78-.03.05-3.32,2.24-2.85,5.55-.09.12-.19.25-.31.39-.27-1.49-.65-2.97-1.13-4.41.12-.2.23-.37.32-.53.7-.2,3-1.77,1.86-6.22-.15.2-3.04,2.87-2.12,5.99-.06.11-.13.23-.21.36-.51-1.45-1.13-2.86-1.86-4.22.09-.2.16-.37.23-.54.69-.28,2.94-2.58,1-6.55-1.33,2-2.33,3.95-1.28,6.31-.05.12-.1.25-.16.38-.75-1.35-1.59-2.65-2.56-3.88.08-.25.14-.48.19-.68.67-.37,2.64-2.86.05-6.72-.01.06-2.26,3.31-.37,6.52-.04.17-.09.35-.15.56-1.33-1.63-3.14-3.38-3.23-3.45-.61-3.49-4.8-3.41-4.85-3.43,1.6,4.04,4.01,4.22,4.71,4.08.5.65,1.58,1.76,2.84,3.42-.4.03-.74.05-1.02.06-2.22-2.54-5.73.1-5.78.11,3.43,1.97,5.34.77,5.82.26.95-.04,1.08,0,1.17-.18.83,1.1,1.72,2.43,2.57,4.01-.42-.02-.76-.05-1.05-.08-1.92-2.76-5.52-.66-5.57-.65,2.86,2.37,5.02,1.46,5.57,1.02.7.06,1.09.07.99.07.08,0,.14-.05.18-.12.67,1.27,1.31,2.68,1.85,4.26-.38-.07-.7-.14-.97-.2-1.43-2.94-5.21-1.36-5.26-1.36,2.41,2.69,4.61,2.07,5.2,1.72.98.22,1.01.24,1.12.12.45,1.34.84,2.79,1.13,4.35-.26-.1-.56-.21-.85-.32-1.07-3.04-4.79-1.97-4.84-1.99,1.96,2.98,4.13,2.6,4.74,2.33.91.34.89.36,1,.31.28,1.62.38,2.67.44,4.31-.22-.12-.46-.25-.7-.38-.56-3.08-4.32-2.53-4.37-2.55,1.41,3.13,3.64,3.09,4.25,2.88.79.43.74.42.83.42.05,1.49.01,2.91-.1,4.27-.26-.19-.45-.33-.65-.48-.09-3.12-3.78-3.01-3.82-3.03.92,3.2,3.05,3.47,3.66,3.34.46.35.64.52.77.5-.14,1.48-.37,2.87-.67,4.2-.23-.22-.41-.4-.6-.59.41-3-3.2-3.39-3.24-3.42.42,3.24,2.42,3.72,3.03,3.69.64.65.61.63.75.57-.34,1.45-.77,2.82-1.27,4.1-.02-.09.01,0-.52-.72.71-2.89-2.59-3.68-2.63-3.71-.02,3.23,1.79,3.89,2.39,3.95.31.41.5.8.71.63-.55,1.37-1.18,2.65-1.87,3.84-.03-.08-.14-.26-.39-.73,1.11-2.75-1.96-3.89-2-3.93-.48,3.16,1.17,4.01,1.73,4.13.35.64.37.77.55.71-.72,1.23-1.5,2.37-2.33,3.42-.09-.22-.17-.44-.25-.66,1.48-2.58-1.33-4.03-1.36-4.07-.91,3.01.55,4.06,1.08,4.24.26.72.25.72.33.75-.86,1.07-1.75,2.05-2.66,2.95-.05-.2-.08-.37-.11-.54,1.77-2.19-.71-4.11-.73-4.15-1.31,2.84-.05,4.04.43,4.27.04.2.08.4.15.67-.98.94-1.96,1.79-2.92,2.55-.01-.15-.02-.28-.02-.4,2.07-1.88-.1-4.11-.12-4.15-1.67,2.61-.62,3.95-.19,4.24,0,.15.02.33.04.54-1.11.86-2.19,1.61-3.18,2.24,0-.13.02-.23.03-.33,2.28-1.71.48-4.04.47-4.08-2,2.58-1.16,3.83-.78,4.13-.01.13-.02.29-.04.48-2.41,1.52-3.95,2.25-4.28,2.51-.4.19-.9,1.73,4.73-1.79.21.04.4.08.56.1.27.44,2.04,1.63,5.32-.32-.14-.02-2.28-1.39-5.14.08-.13-.02-.28-.04-.43-.07,1.15-.74,2.24-1.52,3.27-2.35.2.02.4.03.59.04.3.41,2.31,1.4,5.38-.92-.18-.01-2.6-1.12-5.22.67-.15,0-.31-.02-.46-.03,1.05-.86,2.03-1.77,2.95-2.72.21,0,.44-.01.69-.03.41.36,2.33,1.17,5.33-1.56-.26.03-2.72-.86-5.23,1.28-.18.01-.36.02-.53.03.93-.99,1.8-2.02,2.6-3.08.23-.03.48-.07.75-.12.46.32,2.59.88,5.23-2.2-.23.03-3.12-.43-5.17,1.92-.2.04-.39.07-.58.1.8-1.1,1.54-2.24,2.2-3.41.28-.07.54-.14.79-.22.51.27,2.81.56,5.05-2.86-.05.01-3.25-.1-5.03,2.57-.19.06-.4.12-.62.18.66-1.2,1.25-2.44,1.76-3.7Z"/>
      <path class="cls-1" d="m281.75,93.85c-.57-.27-2.23-1-4.37-2.26-.02-.21-.05-.39-.07-.55,1.1-1.02.06-2.83-1-4.12-.01.04-1.61,2.49.69,4.08.02.11.03.24.05.38-1.16-.7-2.26-1.44-3.3-2.23,0-.25.01-.45.01-.61.41-.28,1.37-1.43-.41-4.22-1.09,1.09-1.33,2.83.1,4.14,0,.12,0,.28,0,.45-1.08-.84-2.09-1.72-3.05-2.65.04-.24.08-.45.1-.61.47-.24,1.67-1.46.2-4.28-.04.07-2.46,1.9-.51,4.15-.02.13-.04.29-.08.47-.97-.97-1.88-1.98-2.72-3.03.08-.24.14-.43.2-.61,1.48-.54,1.43-2.6.85-4.23-.07.08-2.8,1.56-1.14,4.08-.04.14-.09.28-.14.45-.85-1.09-1.62-2.21-2.33-3.37.1-.19.18-.35.26-.51.55-.08,2.17-1.01,1.52-4.16-.02.04-3.12,1.27-1.79,3.94-.06.13-.12.26-.19.39-.7-1.18-1.34-2.4-1.9-3.64.13-.17.23-.32.33-.47,1.71-.1,2.29-2.29,2.19-3.97-.04.04-3.41.86-2.44,3.72-.08.12-.16.24-.25.36-.55-1.26-1.03-2.56-1.43-3.87.18-.18.32-.33.44-.46.6.04,2.41-.31,2.82-3.69-.09.04-3.61.61-3.06,3.43-.09.1-.19.21-.32.33-.39-1.33-.7-2.68-.93-4.03.22-.17.41-.31.56-.43,1.88.28,3.07-1.69,3.45-3.33-.04.02-3.93.04-3.67,3.05-.11.09-.25.2-.41.32-.22-1.38-.36-2.77-.4-4.15.23-.13.47-.26.7-.4,1.82.51,3.35-1.09,4.07-2.88-.04.01-3.83-.53-4.22,2.56-.19.11-.37.22-.56.32-.03-1.42.04-2.82.19-4.22.05,0,.84-.31.88-.33.63.26,2.8.65,4.62-2.34-.52.02-3.87-.96-4.74,2-.24.09-.49.19-.72.28.18-1.45.45-2.88.83-4.27.11.06.11.05,1.07-.17.62.35,2.91.97,5.11-1.73-2-.82-4.24-.56-5.16,1.37-.25.06-.56.12-.93.2.41-1.46.95-2.87,1.6-4.24.11.15.13.12,1.16.03.52.43,2.45,1.36,5.51-1.04-.12-.02-3.75-2.07-5.53.67-.28.03-.61.05-1.02.08.67-1.38,1.44-2.72,2.35-3.97.09.1.09.09,1.17.14.51.5,2.42,1.7,5.79-.28-.05,0-3.7-2.6-5.78-.09-.27-.01-.6-.03-.99-.05,1.72-2.32,2.92-3.22,3.15-3.6,3.15-.64,3.81-4.21,3.86-4.28-4.54.56-4.68,3.32-4.51,4.13-1.02,1.18-1.94,2.38-2.76,3.59.04-.08-.15-.53-.36-1.24,1.74-3.21-.53-6.14-.67-6.52-2.39,3.85-.32,6.36.36,6.73.16.53.43,1.47.67,1.04-.96,1.41-1.79,2.84-2.5,4.29.04-.13-.05-.12-.51-1.15,1.27-3.24-1.56-6.27-1.57-6.32-1.68,4.26.57,6.21,1.28,6.52.17.37.61,1.44.79.96-.72,1.48-1.31,2.97-1.79,4.46-.02-.06-.4-.62-.62-1,.74-3.4-2.35-5.93-2.39-5.99-.98,4.39,1.43,6.02,2.15,6.23.41.66.6,1.06.82.93-.46,1.48-.8,2.96-1.03,4.43-.29-.3-.51-.57-.7-.81.32-3.34-3.08-5.52-3.12-5.56-.29,4.41,2.22,5.72,2.92,5.82.59.74.71.86.85.83-.22,1.47-.33,2.94-.34,4.39-.27-.23-.51-.45-.72-.65-.21-3.31-3.69-5-3.73-5.04.38,4.41,2.94,5.33,3.59,5.33.24.23.73.7.86.71,0,1.45.11,2.88.31,4.29-.26-.18-.5-.35-.72-.51-.66-3.2-4.19-4.43-4.25-4.47.96,4.25,3.47,4.81,4.13,4.75.1.07.78.58.9.6.22,1.42.53,2.81.93,4.17-.28-.14-.54-.28-.76-.42-.36-.98-.89-1.76-1.83-2.47-1.31-1.05-2.75-1.36-2.81-1.38,1.51,4.02,3.98,4.29,4.59,4.16.09.05.82.46.92.48.41,1.35.9,2.68,1.47,3.97-.3-.11-.55-.22-.76-.31-1.42-2.84-4.9-3.21-4.94-3.23,1.17,2.23,3.26,4.08,4.91,3.52.1.04.85.37.96.37.58,1.28,1.24,2.52,1.97,3.72-.3-.08-.55-.15-.77-.22-1.77-2.63-5.11-2.57-5.16-2.59,2.39,3.43,4.68,3.14,5.18,2.88.09.03.84.25.94.24.73,1.18,1.52,2.32,2.38,3.42-.22-.03-.47-.07-.73-.12-2.07-2.37-5.23-1.93-5.27-1.94,2.79,3.12,4.89,2.54,5.34,2.22.2.04.81.14.9.14.86,1.08,1.79,2.1,2.76,3.08-.21,0-.45-.02-.68-.03-2.45-2.11-5.26-1.3-5.3-1.3,3.11,2.74,5.02,1.94,5.4,1.58.26.02.54.03.85.03.98.96,2,1.87,3.07,2.72-.21.02-.43.04-.61.04-2.21-1.49-3.49-.95-5.26-.69,3.34,2.32,5.11,1.34,5.41.94.24-.01.5-.03.77-.05,1.09.84,2.22,1.62,3.4,2.34-.18.04-.39.07-.6.11-2.8-1.48-5.02-.11-5.15-.1,3.39,1.95,5.11.77,5.34.33.28-.05.54-.1.74-.14,1.71,1.02,2.86,1.59,4.47,2.35.47.22.78-.36.33-.58Z"/>
    </g>
  </g>
</svg>